# xmcd CD database file
#
# Track frame offsets:
#	150
#	14411
#	28866
#	43381
#	55707
#	68091
#	80500
#	95367
#	110318
#	125279
#	138045
#	150978
#	163891
#	175080
#	186419
#	197756
#	211799
#	225914
#	240020
#	256631
#	273387
#	290062
#	303914
#	317955
#
# Disc length: 4425 seconds
#
# Revision: 0
# Processed by: cddbd v1.5.2PL0 Copyright (c) Steve Scherf et al.
# Submitted via: CDex 1.70beta2
#
DISCID=3d114718
DTITLE=Nelson Faria and Cliff Korman - Inside The Brazilian Rhythm Section
DYEAR=2001
DGENRE=Jazz
TTITLE0=Samba - Brasilified by Cliff Korman
TTITLE1=Brasilified - no piano
TTITLE2=Brasilified - no guitar
TTITLE3=Bossa Nova (Rio by Nelson Faria)
TTITLE4=Rio - no piano
TTITLE5=Rio - no guitar
TTITLE6=Partido Alto - (Brooklyn High by Nelson Faria)
TTITLE7=Brooklyn High - no piano
TTITLE8=Brooklyn High - no guitar
TTITLE9=Choro - (Saudade do Paulo by Cliff Korman and Oto Coberg
TTITLE10=Saudade do Paulo - no piano
TTITLE11=Saudade do Paulo - no guitar
TTITLE12=Baiao - (Playground by Nelson Faria)
TTITLE13=Playground - no piano
TTITLE14=Playground - no guitar
TTITLE15=Frevo - (Sombrinhas do Olinda by Cliff Korman)
TTITLE16=Sombrinhas do Olinda - no piano
TTITLE17=Sombrinhas do Olinda - no guitar
TTITLE18=Marcha-Rancho - (Fim de Festa by Nelson Faria and Cliff Korman)
TTITLE19=Fim de Festa - no piano
TTITLE20=Fim de Festa - no guitar
TTITLE21=Afoxe - (Montanha Russa by Nelson Faria and Cliff Korman)
TTITLE22=Montanha Russa - no piano
TTITLE23=Montanha Russa - no guitar
EXTD=YEAR: 2001
EXTT0=
EXTT1=
EXTT2=
EXTT3=
EXTT4=
EXTT5=
EXTT6=
EXTT7=
EXTT8=
EXTT9=
EXTT10=
EXTT11=
EXTT12=
EXTT13=
EXTT14=
EXTT15=
EXTT16=
EXTT17=
EXTT18=
EXTT19=
EXTT20=
EXTT21=
EXTT22=
EXTT23=
PLAYORDER=
